<svg width="156" height="18" viewBox="0 0 156 18" fill="none" xmlns="http://www.w3.org/2000/svg">
<path d="M6.72 14V2.6H10.84V0.6H0.36V2.6H4.46V14H6.72ZM14.9141 14.2C17.0741 14.2 18.3941 13.22 19.1341 12.1L17.7541 10.66C17.3941 11.48 16.6341 12.36 14.9341 12.36C13.3941 12.36 12.3741 11.42 12.2541 9.68H19.2141C19.2541 9.48 19.2941 9.06 19.2941 8.7C19.2941 6 17.6741 4.06 14.7541 4.06C12.0141 4.06 10.1141 6.08 10.1141 9.14C10.1141 12.18 12.0141 14.2 14.9141 14.2ZM14.7541 5.86C16.2341 5.86 17.1141 6.7 17.2741 8.24H12.2741C12.4541 6.66 13.3741 5.86 14.7541 5.86ZM23.4981 14V8.64C23.4981 7.02 24.5381 5.74 25.6581 5.74C26.3181 5.74 26.5781 6.18 26.5781 6.72C26.5781 7.28 26.2781 7.92 25.9581 8.24H28.2581C28.4381 7.94 28.6981 7.24 28.6981 6.3C28.6981 4.86 27.7981 4.06 26.5781 4.06C24.8381 4.06 23.8581 5.46 23.4981 7.02V4.26H21.2581V14H23.4981ZM32.2677 14V8.64C32.2677 7.02 33.3077 5.74 34.4277 5.74C35.0877 5.74 35.3477 6.18 35.3477 6.72C35.3477 7.28 35.0477 7.92 34.7277 8.24H37.0277C37.2077 7.94 37.4677 7.24 37.4677 6.3C37.4677 4.86 36.5677 4.06 35.3477 4.06C33.6077 4.06 32.6277 5.46 32.2677 7.02V4.26H30.0277V14H32.2677ZM43.0391 14.2C45.1991 14.2 46.5191 13.22 47.2591 12.1L45.8791 10.66C45.5191 11.48 44.7591 12.36 43.0591 12.36C41.5191 12.36 40.4991 11.42 40.3791 9.68H47.3391C47.3791 9.48 47.4191 9.06 47.4191 8.7C47.4191 6 45.7991 4.06 42.8791 4.06C40.1391 4.06 38.2391 6.08 38.2391 9.14C38.2391 12.18 40.1391 14.2 43.0391 14.2ZM42.8791 5.86C44.3591 5.86 45.2391 6.7 45.3991 8.24H40.3991C40.5791 6.66 41.4991 5.86 42.8791 5.86ZM51.6231 14V8.54C51.6231 6.94 52.1831 5.88 53.8231 5.88C55.3231 5.88 55.7231 6.7 55.7231 7.9V14H57.9831V7.22C57.9831 5.2 56.8231 4.06 54.9231 4.06C52.9831 4.06 51.9831 5.38 51.6231 6.92V4.26H49.3831V14H51.6231ZM64.4625 14.2C66.9025 14.2 68.4425 12.82 68.9625 10.98L66.9425 9.98C66.7225 11.38 66.0225 12.32 64.5025 12.32C62.9625 12.32 62.0225 11.18 62.0225 9.14C62.0225 7.08 62.9625 5.94 64.5025 5.94C66.0025 5.94 66.7225 6.88 66.9425 8.28L68.9625 7.28C68.4425 5.44 66.9025 4.06 64.4625 4.06C61.5625 4.06 59.7425 6.1 59.7425 9.14C59.7425 12.16 61.5625 14.2 64.4625 14.2ZM74.8359 14.2C76.9959 14.2 78.3159 13.22 79.0559 12.1L77.6759 10.66C77.3159 11.48 76.5559 12.36 74.8559 12.36C73.3159 12.36 72.2959 11.42 72.1759 9.68H79.1359C79.1759 9.48 79.2159 9.06 79.2159 8.7C79.2159 6 77.5959 4.06 74.6759 4.06C71.9359 4.06 70.0359 6.08 70.0359 9.14C70.0359 12.18 71.9359 14.2 74.8359 14.2ZM74.6759 5.86C76.1559 5.86 77.0359 6.7 77.1959 8.24H72.1959C72.3759 6.66 73.2959 5.86 74.6759 5.86ZM90.9192 14V2.6H95.0392V0.6H84.5592V2.6H88.6592V14H90.9192ZM99.1133 14.2C101.273 14.2 102.593 13.22 103.333 12.1L101.953 10.66C101.593 11.48 100.833 12.36 99.1333 12.36C97.5933 12.36 96.5733 11.42 96.4533 9.68H103.413C103.453 9.48 103.493 9.06 103.493 8.7C103.493 6 101.873 4.06 98.9533 4.06C96.2133 4.06 94.3133 6.08 94.3133 9.14C94.3133 12.18 96.2133 14.2 99.1133 14.2ZM98.9533 5.86C100.433 5.86 101.313 6.7 101.473 8.24H96.4733C96.6533 6.66 97.5733 5.86 98.9533 5.86ZM109.36 11.08C111.76 11.08 113.38 9.64 113.38 7.58C113.38 6.36 112.82 5.36 111.86 4.74L113.68 2.74L111.52 2L111.04 4.34C110.54 4.16 109.98 4.06 109.36 4.06C106.96 4.06 105.32 5.52 105.32 7.58C105.32 8.82 105.92 9.84 106.9 10.44C106 11.06 105.24 11.92 105.24 12.8C105.24 13.54 105.7 14 106.4 14.2C105.46 14.42 104.58 14.92 104.58 15.84C104.58 17.06 106.16 17.92 108.88 17.92C112.42 17.92 114.22 16.52 114.22 14.68C114.22 13.22 113.16 12.44 111.22 12.44H108.08C107.18 12.44 106.92 12.18 106.92 11.68C106.92 11.34 107.14 10.96 107.32 10.66C107.9 10.94 108.6 11.08 109.36 11.08ZM109.36 9.48C108.3 9.48 107.46 8.8 107.46 7.58C107.46 6.36 108.3 5.68 109.36 5.68C110.42 5.68 111.26 6.36 111.26 7.58C111.26 8.8 110.42 9.48 109.36 9.48ZM108.98 16.24C107.2 16.24 106.4 15.82 106.4 15.1C106.4 14.76 106.64 14.44 106.86 14.22H110.92C111.78 14.22 112.2 14.44 112.2 14.96C112.2 15.78 111.08 16.24 108.98 16.24ZM119.758 14.2C121.918 14.2 123.238 13.22 123.978 12.1L122.598 10.66C122.238 11.48 121.478 12.36 119.778 12.36C118.238 12.36 117.218 11.42 117.098 9.68H124.058C124.098 9.48 124.138 9.06 124.138 8.7C124.138 6 122.518 4.06 119.598 4.06C116.858 4.06 114.958 6.08 114.958 9.14C114.958 12.18 116.858 14.2 119.758 14.2ZM119.598 5.86C121.078 5.86 121.958 6.7 122.118 8.24H117.118C117.298 6.66 118.218 5.86 119.598 5.86ZM130.005 11.08C132.405 11.08 134.025 9.64 134.025 7.58C134.025 6.36 133.465 5.36 132.505 4.74L134.325 2.74L132.165 2L131.685 4.34C131.185 4.16 130.625 4.06 130.005 4.06C127.605 4.06 125.965 5.52 125.965 7.58C125.965 8.82 126.565 9.84 127.545 10.44C126.645 11.06 125.885 11.92 125.885 12.8C125.885 13.54 126.345 14 127.045 14.2C126.105 14.42 125.225 14.92 125.225 15.84C125.225 17.06 126.805 17.92 129.525 17.92C133.065 17.92 134.865 16.52 134.865 14.68C134.865 13.22 133.805 12.44 131.865 12.44H128.725C127.825 12.44 127.565 12.18 127.565 11.68C127.565 11.34 127.785 10.96 127.965 10.66C128.545 10.94 129.245 11.08 130.005 11.08ZM130.005 9.48C128.945 9.48 128.105 8.8 128.105 7.58C128.105 6.36 128.945 5.68 130.005 5.68C131.065 5.68 131.905 6.36 131.905 7.58C131.905 8.8 131.065 9.48 130.005 9.48ZM129.625 16.24C127.845 16.24 127.045 15.82 127.045 15.1C127.045 14.76 127.285 14.44 127.505 14.22H131.565C132.425 14.22 132.845 14.44 132.845 14.96C132.845 15.78 131.725 16.24 129.625 16.24ZM138.44 14V8.54C138.44 6.94 139 5.88 140.64 5.88C142.14 5.88 142.54 6.7 142.54 7.9V14H144.8V7.22C144.8 5.2 143.64 4.06 141.74 4.06C139.8 4.06 138.8 5.38 138.44 6.92V4.26H136.2V14H138.44ZM151.379 14.2C153.539 14.2 154.859 13.22 155.599 12.1L154.219 10.66C153.859 11.48 153.099 12.36 151.399 12.36C149.859 12.36 148.839 11.42 148.719 9.68H155.679C155.719 9.48 155.759 9.06 155.759 8.7C155.759 6 154.139 4.06 151.219 4.06C148.479 4.06 146.579 6.08 146.579 9.14C146.579 12.18 148.479 14.2 151.379 14.2ZM151.219 5.86C152.699 5.86 153.579 6.7 153.739 8.24H148.739C148.919 6.66 149.839 5.86 151.219 5.86Z" fill="black"/>
</svg>
